<svg id="Layer_1" data-name="Layer 1" xmlns="http://www.w3.org/2000/svg" viewBox="0 0 120 120"><title>shopee-logo</title><path d="M110,92.89A17.11,17.11,0,0,1,92.89,110H27.11A17.11,17.11,0,0,1,10,92.89V27.11A17.11,17.11,0,0,1,27.11,10H92.89A17.11,17.11,0,0,1,110,27.11Z" fill="#fe5722"/><path d="M86.6,44.88c-4.13,0-8.27,0-12.41,0-.87,0-1.09-.23-1.15-1.11a25.41,25.41,0,0,0-3.75-12A11.42,11.42,0,0,0,63,26.66c-5-1.53-10,.63-12.86,5.63a26,26,0,0,0-3.2,11.5c-.06.87-.29,1.12-1.16,1.11-4.17,0-8.35,0-12.53,0-2.48,0-3.57,1.24-3.35,3.74q.21,2.48.39,5c.8,11,1.57,22,2.4,33,.36,4.75,3.14,7.27,7.87,7.27H79.67a9.47,9.47,0,0,0,1.76-.12c3.21-.63,5.5-3.23,5.84-7,.53-5.72.9-11.46,1.33-17.19.52-7,1-14,1.52-21C90.3,45.87,89.29,44.88,86.6,44.88Zm-18,0c-2.91,0-5.82,0-8.73,0s-5.75,0-8.62,0c-.66,0-1-.08-.94-.89a23.46,23.46,0,0,1,2.52-9.62,8.27,8.27,0,0,1,6-4.69A6.79,6.79,0,0,1,65.24,32c2.21,2.35,3.14,5.31,3.81,8.37.25,1.15.34,2.33.54,3.49C69.74,44.63,69.49,44.91,68.63,44.9Z" fill="#fff" fill-rule="evenodd"/><path d="M60.35,53.25a13.72,13.72,0,0,1,7.08,2,4.48,4.48,0,0,1,.67.47,1.15,1.15,0,0,1,.19,1.69,1,1,0,0,1-1.55.18,11.69,11.69,0,0,0-5.36-2,7.8,7.8,0,0,0-5.68,1.52c-2.76,2.09-2.76,5.36,0,7.47a17.1,17.1,0,0,0,5.17,2.51,17.89,17.89,0,0,1,7.36,4.11c4,4,2.83,10-2.33,12.26a11.24,11.24,0,0,1-2.7.83,15.85,15.85,0,0,1-12.33-3.22c-.64-.46-1-1.07-.47-1.8s1.16-.56,1.85-.09c3.21,2.22,6.68,3.51,10.66,2.83A7.81,7.81,0,0,0,66,80.73a4.88,4.88,0,0,0,1-7.33,14,14,0,0,0-6.48-3.92,27,27,0,0,1-5-2.15c-2.75-1.63-4.67-3.75-4.21-7.25.38-2.89,3-5.6,6.2-6.46A13.16,13.16,0,0,1,60.35,53.25Z" fill="#fe5722" fill-rule="evenodd"/></svg>